<svg width="128" height="39" viewBox="0 0 128 39" fill="none" xmlns="http://www.w3.org/2000/svg">
<g clip-path="url(#clip0_396_104)">
<path d="M8.34964 26.9677C6.88323 26.9677 5.56322 26.7161 4.38722 26.2103C3.21121 25.7045 2.24161 24.9831 1.48081 24.0435C0.720006 23.1039 0.225601 21.9869 0 20.6949L3.09121 20.2275C3.40322 21.4739 4.05602 22.4447 5.04722 23.1374C6.04082 23.8301 7.19763 24.1777 8.52244 24.1777C9.34564 24.1777 10.1016 24.0483 10.7905 23.787C11.4817 23.5281 12.036 23.1542 12.456 22.6676C12.8761 22.181 13.0873 21.5986 13.0873 20.9178C13.0873 20.5487 13.0225 20.2227 12.8953 19.9399C12.7681 19.657 12.5929 19.4078 12.3697 19.1968C12.1465 18.9835 11.8777 18.8013 11.5609 18.6455C11.2441 18.4897 10.896 18.3555 10.5192 18.2428L5.28722 16.6992C4.77602 16.5482 4.25762 16.3517 3.72722 16.112C3.19681 15.8723 2.71441 15.5559 2.27281 15.1628C1.83361 14.7721 1.47601 14.2855 1.20241 13.703C0.928806 13.123 0.792008 12.4159 0.792008 11.5865C0.792008 10.3305 1.11601 9.26628 1.76401 8.39379C2.41201 7.5213 3.28801 6.85975 4.39442 6.41152C5.50082 5.96329 6.73923 5.73798 8.10964 5.73798C9.48964 5.75715 10.7256 6.00164 11.8177 6.47384C12.9097 6.94604 13.8169 7.62437 14.5393 8.50645C15.2617 9.38853 15.7609 10.4576 16.0345 11.7136L12.8593 12.2529C12.7177 11.4883 12.4153 10.8291 11.9521 10.2778C11.4889 9.7265 10.9225 9.29984 10.2504 9.00262C9.57844 8.7054 8.85124 8.55199 8.06644 8.5424C7.31043 8.52323 6.61683 8.63589 5.98803 8.88277C5.35923 9.12726 4.85762 9.47242 4.48562 9.91585C4.11122 10.3593 3.92642 10.8698 3.92642 11.4451C3.92642 12.0204 4.09202 12.4686 4.42322 12.8186C4.75443 13.1685 5.16242 13.4442 5.64963 13.6479C6.13683 13.8516 6.62163 14.0194 7.10403 14.1513L10.8768 15.2131C11.3496 15.3449 11.8848 15.5223 12.4873 15.7452C13.0873 15.9681 13.6681 16.2774 14.2321 16.6728C14.7937 17.0683 15.2593 17.5957 15.6289 18.2524C15.9985 18.9092 16.1809 19.7314 16.1809 20.7237C16.1809 21.716 15.9721 22.658 15.5569 23.437C15.1417 24.216 14.5705 24.868 13.8481 25.3905C13.1257 25.9155 12.2905 26.3086 11.3449 26.5722C10.3992 26.8359 9.40084 26.9677 8.35204 26.9677H8.34964Z" fill="#1D1E1B"/>
<path d="M18.6309 26.5435V5.72357H21.5949V26.5435H18.6309Z" fill="#1D1E1B"/>
<path d="M29.3233 26.9677C28.1881 26.9677 27.2377 26.7568 26.4721 26.3373C25.7065 25.9179 25.1281 25.3594 24.7345 24.6666C24.3433 23.9715 24.1465 23.2093 24.1465 22.38C24.1465 21.6057 24.2833 20.925 24.5569 20.3402C24.8305 19.7553 25.2385 19.2567 25.7761 18.8469C26.3161 18.437 26.9761 18.1038 27.7609 17.8473C28.4425 17.6484 29.2129 17.4734 30.0721 17.3224C30.9313 17.1714 31.8385 17.03 32.7865 16.8981C33.7369 16.7663 34.6801 16.6345 35.6161 16.5026L34.5385 17.0971C34.5577 15.8986 34.3057 15.007 33.7801 14.4269C33.2545 13.8468 32.3545 13.5568 31.0777 13.5568C30.2737 13.5568 29.5369 13.7438 28.8649 14.1153C28.1929 14.4892 27.7249 15.1052 27.4609 15.9633L24.6961 15.1148C25.0729 13.8037 25.7953 12.7586 26.8585 11.9844C27.9217 11.2102 29.3377 10.8243 31.1065 10.8243C32.4769 10.8243 33.6697 11.0568 34.6873 11.5242C35.7025 11.9916 36.4489 12.7299 36.9217 13.7414C37.1665 14.2423 37.3177 14.7697 37.3753 15.3281C37.4329 15.8842 37.4593 16.4859 37.4593 17.1259V26.5435H34.8361V23.0463L35.3473 23.4993C34.7137 24.6714 33.9073 25.5415 32.9305 26.112C31.9513 26.6825 30.7489 26.9677 29.3209 26.9677H29.3233ZM29.8489 24.5468C30.6913 24.5468 31.4137 24.3982 32.0185 24.101C32.6233 23.8037 33.1105 23.4226 33.4801 22.96C33.8497 22.4974 34.0897 22.0156 34.2025 21.5147C34.3633 21.0616 34.4545 20.5511 34.4785 19.9854C34.5025 19.4197 34.5145 18.9667 34.5145 18.6263L35.4793 18.9811C34.5433 19.1225 33.6937 19.2495 32.9257 19.3622C32.1577 19.4749 31.4665 19.5875 30.8473 19.6954C30.2281 19.8032 29.6785 19.9351 29.1961 20.0837C28.7905 20.2251 28.4281 20.3953 28.1113 20.5942C27.7945 20.7932 27.5449 21.0329 27.3601 21.3157C27.1753 21.5986 27.0841 21.9437 27.0841 22.3488C27.0841 22.7539 27.1825 23.111 27.3817 23.4466C27.5809 23.7822 27.8833 24.0482 28.2889 24.2472C28.6945 24.4461 29.2153 24.5444 29.8489 24.5444V24.5468Z" fill="#1D1E1B"/>
<path d="M49.0631 13.6263V11.2462H44.5103V6.99878H41.5319V11.2486H38.5967V13.6287H41.5319V20.5248C41.5319 21.3565 41.5439 22.0995 41.5679 22.7563C41.5919 23.4131 41.7695 24.0578 42.1007 24.6906C42.4703 25.3977 43.0175 25.9179 43.7447 26.2487C44.4719 26.5794 45.2999 26.7592 46.2263 26.7856C47.1527 26.8143 48.0983 26.7328 49.0631 26.5459V24.0387C48.0599 24.1801 47.1887 24.2113 46.4471 24.1298C45.7055 24.0507 45.1631 23.7175 44.8223 23.1302C44.6423 22.8186 44.5463 22.4351 44.5319 21.9821C44.5175 21.5291 44.5103 20.9946 44.5103 20.3809V13.6263H49.0631Z" fill="#1D1E1B"/>
<path d="M62.9886 19.7313H64.4622C64.575 17.9001 64.3614 16.3181 63.8166 14.9878C63.2718 13.6575 62.4534 12.6292 61.3566 11.9077C60.2598 11.1862 58.9326 10.8243 57.3726 10.8243C55.8125 10.8243 54.5693 11.1599 53.4437 11.831C52.3181 12.5021 51.4421 13.4513 50.8133 14.6786C50.1845 15.9058 49.8701 17.356 49.8701 19.0266C49.8701 20.6038 50.1893 21.9893 50.8277 23.1829C51.4661 24.3766 52.3589 25.3066 53.5085 25.973C54.6581 26.6393 55.9925 26.9725 57.5141 26.9725C59.0357 26.9725 60.3462 26.5962 61.5558 25.8459C62.7654 25.0957 63.6678 24.0363 64.2654 22.6652L61.359 21.7448C60.9798 22.5286 60.4542 23.1302 59.7774 23.5497C59.1006 23.9691 58.299 24.1801 57.3726 24.1801C55.9637 24.1801 54.8861 23.7199 54.1397 22.7994C53.5229 22.0396 53.1653 21.0137 53.0573 19.7337H62.9886V19.7313ZM54.1397 14.8464C54.8861 13.9115 56.0021 13.4441 57.4853 13.4441C58.8269 13.4441 59.8278 13.8684 60.4854 14.7193C60.9798 15.3593 61.2942 16.2606 61.4262 17.4255H53.1245C53.2805 16.3636 53.6165 15.5031 54.1397 14.8488V14.8464Z" fill="#1D1E1B"/>
<path d="M66.7871 26.5434V11.2461H69.4247V14.9566L69.0551 14.4748C69.2447 13.9834 69.4895 13.5328 69.7919 13.1229C70.0943 12.7131 70.4447 12.3751 70.8407 12.1114C71.2271 11.8286 71.6615 11.6081 72.1391 11.4523C72.6167 11.2965 73.1063 11.203 73.6079 11.1694C74.1095 11.1359 74.5919 11.1622 75.0551 11.2461V14.0218C74.5535 13.89 73.9991 13.8516 73.3895 13.9091C72.7799 13.9667 72.2207 14.1584 71.7095 14.4892C71.2271 14.8008 70.8479 15.1795 70.5671 15.6229C70.2887 16.0664 70.0871 16.5602 69.9647 17.1019C69.8423 17.646 69.7799 18.2188 69.7799 18.8229V26.541H66.7871V26.5434Z" fill="#1D1E1B"/>
<path d="M75.2041 26.4764V23.3459H78.3385V26.4764H75.2041Z" fill="#1D1E1B"/>
<path d="M86.295 26.903C85.1598 26.903 84.2094 26.6921 83.4438 26.2726C82.6782 25.8532 82.0998 25.2947 81.7062 24.602C81.315 23.9068 81.1182 23.1446 81.1182 22.3153C81.1182 21.541 81.255 20.8603 81.5286 20.2755C81.8022 19.6906 82.2102 19.192 82.7478 18.7822C83.2878 18.3723 83.9478 18.0391 84.7326 17.7826C85.4142 17.5837 86.1846 17.4087 87.0438 17.2577C87.903 17.1067 88.8102 16.9653 89.7582 16.8334C90.7086 16.7016 91.6518 16.5698 92.5878 16.4379L91.5102 17.0324C91.5294 15.8339 91.2774 14.9423 90.7518 14.3622C90.2262 13.7821 89.3262 13.4921 88.0494 13.4921C87.2454 13.4921 86.5086 13.6791 85.8366 14.0506C85.1646 14.4245 84.6966 15.0405 84.4326 15.8986L81.6678 15.0501C82.0446 13.739 82.767 12.6939 83.8302 11.9197C84.8934 11.1455 86.3094 10.7596 88.0782 10.7596C89.4486 10.7596 90.6414 10.9921 91.659 11.4595C92.6742 11.9269 93.4206 12.6652 93.8934 13.6767C94.1382 14.1776 94.2894 14.705 94.347 15.2634C94.4046 15.8195 94.431 16.4212 94.431 17.0612V26.4788H91.8078V22.9816L92.319 23.4346C91.6854 24.6067 90.879 25.4768 89.9022 26.0473C88.923 26.6178 87.7206 26.903 86.2926 26.903H86.295ZM86.8206 24.4821C87.663 24.4821 88.3854 24.3335 88.9902 24.0363C89.595 23.7391 90.0822 23.3579 90.4518 22.8953C90.8214 22.4327 91.0614 21.9509 91.1742 21.45C91.335 20.9969 91.4262 20.4864 91.4502 19.9207C91.4742 19.355 91.4862 18.902 91.4862 18.5616L92.451 18.9164C91.515 19.0578 90.6654 19.1849 89.8974 19.2975C89.1318 19.4102 88.4382 19.5228 87.819 19.6307C87.1998 19.7385 86.6502 19.8704 86.1678 20.019C85.7622 20.1604 85.3998 20.3306 85.083 20.5295C84.7662 20.7285 84.5166 20.9682 84.3318 21.251C84.147 21.5339 84.0558 21.879 84.0558 22.2841C84.0558 22.6892 84.1542 23.0463 84.3534 23.3819C84.5526 23.7175 84.855 23.9835 85.2606 24.1825C85.6662 24.3814 86.187 24.4797 86.8206 24.4797V24.4821Z" fill="#1D1E1B"/>
<path d="M97.2559 33.2765V11.1814H99.8935V22.1858H100.234V33.2741H97.2559V33.2765ZM104.461 26.903C102.994 26.903 101.765 26.5459 100.774 25.834C99.7831 25.1221 99.0295 24.1561 98.5207 22.9385C98.0095 21.7208 97.7551 20.3474 97.7551 18.8181C97.7551 17.2888 98.0071 15.9154 98.5135 14.6977C99.0199 13.4801 99.7663 12.5189 100.755 11.8166C101.744 11.1143 102.961 10.762 104.408 10.762C105.855 10.762 107.086 11.1143 108.13 11.8166C109.174 12.5189 109.981 13.4777 110.547 14.6906C111.114 15.9034 111.399 17.2793 111.399 18.8181C111.399 20.3569 111.118 21.7232 110.554 22.9456C109.993 24.1681 109.194 25.1341 108.157 25.8412C107.122 26.5483 105.891 26.903 104.463 26.903H104.461ZM104.05 24.2256C104.996 24.2256 105.778 23.9859 106.398 23.5041C107.017 23.0223 107.48 22.3728 107.787 21.5578C108.094 20.7405 108.248 19.8272 108.248 18.8181C108.248 17.809 108.094 16.9101 107.787 16.1C107.48 15.2874 107.01 14.6402 106.376 14.1608C105.742 13.679 104.933 13.4394 103.952 13.4394C103.025 13.4394 102.262 13.6671 101.662 14.1201C101.062 14.5731 100.618 15.2059 100.33 16.0185C100.042 16.831 99.8983 17.7658 99.8983 18.8229C99.8983 19.8799 100.04 20.8148 100.323 21.6273C100.606 22.4399 101.055 23.0775 101.669 23.5401C102.284 24.0027 103.078 24.2328 104.053 24.2328L104.05 24.2256Z" fill="#1D1E1B"/>
<path d="M113.647 33.2765V11.1814H116.285V22.1858H116.626V33.2741H113.647V33.2765ZM120.852 26.903C119.386 26.903 118.157 26.5459 117.166 25.834C116.172 25.1221 115.421 24.1561 114.912 22.9385C114.401 21.7208 114.147 20.3474 114.147 18.8181C114.147 17.2888 114.399 15.9154 114.905 14.6977C115.411 13.4801 116.158 12.5189 117.147 11.8166C118.135 11.1143 119.352 10.762 120.799 10.762C122.247 10.762 123.478 11.1143 124.522 11.8166C125.566 12.5189 126.372 13.4777 126.939 14.6906C127.505 15.9034 127.791 17.2793 127.791 18.8181C127.791 20.3569 127.51 21.7232 126.946 22.9456C126.384 24.1681 125.585 25.1341 124.548 25.8412C123.514 26.5483 122.283 26.903 120.855 26.903H120.852ZM120.442 24.2256C121.387 24.2256 122.17 23.9859 122.789 23.5041C123.408 23.0223 123.872 22.3728 124.179 21.5578C124.486 20.7405 124.64 19.8272 124.64 18.8181C124.64 17.809 124.486 16.9101 124.179 16.1C123.872 15.2874 123.401 14.6402 122.767 14.1608C122.134 13.679 121.325 13.4394 120.343 13.4394C119.417 13.4394 118.654 13.6671 118.054 14.1201C117.454 14.5731 117.01 15.2059 116.722 16.0185C116.434 16.831 116.29 17.7658 116.29 18.8229C116.29 19.8799 116.431 20.8148 116.715 21.6273C116.998 22.4399 117.447 23.0775 118.061 23.5401C118.675 24.0027 119.47 24.2328 120.444 24.2328L120.442 24.2256Z" fill="#1D1E1B"/>
</g>
<defs>
<clipPath id="clip0_396_104">
<rect width="127.791" height="37.5529" fill="white" transform="translate(0 0.723572)"/>
</clipPath>
</defs>
</svg>
