<svg width="113" height="113" viewBox="0 0 113 113" fill="none" xmlns="http://www.w3.org/2000/svg">
<rect width="112.227" height="112.97" rx="56.1133" fill="#1A1A1A"/>
<path d="M85.2242 64.973C84.9589 65.0672 63.0627 72.8085 61.6973 73.2556C58.1082 74.4322 55.8065 74.0479 53.5828 73.6714C51.8507 73.3812 50.0639 73.0831 47.77 73.5537C43.7206 74.4009 40.9195 76.2129 39.4293 78.9583C23.6372 66.4313 27.6711 54.2025 28.4357 52.2886C30.0586 52.3513 37.3304 52.3121 40.0691 46.8919L49.2525 27.3367C50.1887 25.3443 52.5607 24.4893 54.5503 25.4306C56.5399 26.3719 57.3825 28.7565 56.4463 30.7567L52.3578 39.4714C52.2798 39.6283 52.311 39.8165 52.428 39.9499C52.5451 40.0832 52.7323 40.1225 52.8962 40.0676L65.0289 35.6906C66.0276 35.3298 67.1121 35.3847 68.0718 35.8396C69.0315 36.2946 69.7571 37.1025 70.116 38.1065C70.8026 40.0362 69.9444 42.1541 68.1186 43.0483L64.3579 44.4053C64.1316 44.4837 64.0146 44.7348 64.1004 44.9622C64.1862 45.1897 64.4281 45.3074 64.6544 45.2211L68.4151 43.8641C70.3891 43.3856 72.3943 44.4759 73.0809 46.4055C73.7676 48.3352 72.9093 50.453 71.0835 51.3473L67.3228 52.7043C67.0965 52.7827 66.9795 53.0337 67.0653 53.2612C67.1433 53.4887 67.393 53.6064 67.6193 53.5201L71.38 52.163C73.354 51.6846 75.3592 52.7749 76.0458 54.7045C76.709 56.5557 75.9054 58.6422 74.1811 59.5757L70.4281 60.9248C70.2019 61.0033 70.0848 61.2543 70.1707 61.4818C70.2565 61.7092 70.4984 61.8269 70.7246 61.7406L74.5088 60.3757L82.5557 57.4506C84.6234 56.7054 86.9017 57.7879 87.6429 59.8666C88.3841 61.9452 87.3074 64.2357 85.2476 64.9809L85.2242 64.973Z" fill="#FFEC42"/>
</svg>
