<svg width="61" height="54" viewBox="0 0 61 54" fill="none" xmlns="http://www.w3.org/2000/svg">
<path d="M58.2242 39.973C57.9589 40.0672 36.0627 47.8085 34.6973 48.2556C31.1082 49.4322 28.8065 49.0479 26.5828 48.6714C24.8507 48.3812 23.0639 48.0831 20.77 48.5537C16.7206 49.4009 13.9195 51.2129 12.4293 53.9583C-3.36276 41.4313 0.671067 29.2025 1.4357 27.2886C3.0586 27.3513 10.3304 27.3121 13.0691 21.8919L22.2525 2.33669C23.1887 0.344303 25.5607 -0.510697 27.5503 0.430586C29.5399 1.37187 30.3825 3.75646 29.4463 5.75669L25.3578 14.4714C25.2798 14.6283 25.311 14.8165 25.428 14.9499C25.5451 15.0832 25.7323 15.1225 25.8962 15.0676L38.0289 10.6906C39.0276 10.3298 40.1121 10.3847 41.0718 10.8396C42.0315 11.2946 42.7571 12.1025 43.116 13.1065C43.8026 15.0362 42.9444 17.1541 41.1186 18.0483L37.3579 19.4053C37.1316 19.4837 37.0146 19.7348 37.1004 19.9622C37.1862 20.1897 37.4281 20.3074 37.6544 20.2211L41.4151 18.8641C43.3891 18.3856 45.3943 19.4759 46.0809 21.4055C46.7676 23.3352 45.9093 25.453 44.0835 26.3473L40.3228 27.7043C40.0965 27.7827 39.9795 28.0337 40.0653 28.2612C40.1433 28.4887 40.393 28.6064 40.6193 28.5201L44.38 27.163C46.354 26.6846 48.3592 27.7749 49.0458 29.7045C49.709 31.5557 48.9054 33.6422 47.1811 34.5757L43.4281 35.9248C43.2019 36.0033 43.0848 36.2543 43.1707 36.4818C43.2565 36.7092 43.4984 36.8269 43.7246 36.7406L47.5088 35.3757L55.5557 32.4506C57.6234 31.7054 59.9017 32.7879 60.6429 34.8666C61.3841 36.9452 60.3074 39.2357 58.2476 39.9809L58.2242 39.973Z" fill="#FFEC42"/>
</svg>
